<?xml version="1.0" encoding="utf-8"?>
<!-- Generator: Adobe Illustrator 16.0.0, SVG Export Plug-In . SVG Version: 6.00 Build 0)  -->
<!DOCTYPE svg PUBLIC "-//W3C//DTD SVG 1.1//EN" "http://www.w3.org/Graphics/SVG/1.1/DTD/svg11.dtd">
<svg version="1.1" id="Layer_1" xmlns="http://www.w3.org/2000/svg" xmlns:xlink="http://www.w3.org/1999/xlink" x="0px" y="0px"
	 width="530.973px" height="551.986px" viewBox="0 0 530.973 551.986" enable-background="new 0 0 530.973 551.986"
	 xml:space="preserve">
<g>
	<path fill-rule="evenodd" clip-rule="evenodd" d="M264.884,2.904c-144.131,0-261.01,124.929-261.01,279.05
		c0,123.29,74.788,227.89,178.496,264.79c13.042,2.581,17.833-6.057,17.833-13.425c0-6.65-0.241-28.637-0.354-51.956
		c-72.613,16.883-87.935-32.924-87.935-32.924c-11.874-32.252-28.981-40.829-28.981-40.829
		c-23.684-17.319,1.786-16.964,1.786-16.964c26.208,1.969,40.011,28.761,40.011,28.761c23.279,42.656,61.06,30.325,75.956,23.192
		c2.343-18.031,9.105-30.347,16.572-37.313C159.281,398.231,98.335,374.3,98.335,267.378c0-30.465,10.197-55.359,26.896-74.901
		c-2.71-7.031-11.646-35.411,2.528-73.851c0,0,21.919-7.495,71.794,28.608c20.823-6.185,43.152-9.285,65.331-9.394
		c22.182,0.108,44.529,3.209,65.388,9.394c49.821-36.103,71.705-28.608,71.705-28.608c14.209,38.439,5.274,66.819,2.563,73.851
		c16.737,19.542,26.861,44.437,26.861,74.901c0,107.181-61.059,130.777-119.184,137.688c9.364,8.658,17.704,25.64,17.704,51.672
		c0,37.339-0.299,67.39-0.299,76.581c0,7.429,4.697,16.129,17.926,13.389c103.653-36.939,178.349-141.503,178.349-264.754
		C525.898,127.833,409.036,2.904,264.884,2.904z"/>
	<path d="M102.733,403.558c-0.574,1.391-2.617,1.803-4.475,0.851c-1.895-0.91-2.955-2.801-2.342-4.19
		c0.562-1.426,2.604-1.824,4.495-0.872C102.307,400.257,103.388,402.169,102.733,403.558L102.733,403.558z M99.521,401.011"/>
	<path d="M113.307,416.166c-1.246,1.23-3.681,0.657-5.331-1.29c-1.71-1.944-2.026-4.549-0.764-5.8
		c1.283-1.23,3.642-0.655,5.352,1.29C114.273,412.334,114.607,414.916,113.307,416.166L113.307,416.166z M110.816,413.308"/>
	<path d="M123.598,432.235c-1.6,1.19-4.218,0.078-5.833-2.406c-1.6-2.481-1.6-5.459,0.037-6.65c1.617-1.19,4.196-0.117,5.834,2.343
		C125.231,428.044,125.231,431.023,123.598,432.235L123.598,432.235z M123.598,432.235"/>
	<path d="M137.695,447.763c-1.43,1.689-4.478,1.233-6.707-1.07c-2.283-2.246-2.917-5.441-1.485-7.13
		c1.452-1.688,4.516-1.214,6.762,1.07C138.532,442.879,139.219,446.093,137.695,447.763L137.695,447.763z M137.695,447.763"/>
	<path d="M157.146,456.781c-0.633,2.183-3.566,3.175-6.521,2.246c-2.955-0.955-4.883-3.516-4.288-5.723
		c0.612-2.2,3.562-3.234,6.539-2.242C155.825,452.015,157.757,454.556,157.146,456.781L157.146,456.781z M157.146,456.781"/>
	<path d="M178.508,458.448c0.072,2.304-2.435,4.212-5.538,4.254c-3.119,0.075-5.648-1.787-5.682-4.055
		c0-2.324,2.453-4.209,5.572-4.269C175.962,454.315,178.508,456.166,178.508,458.448L178.508,458.448z M178.508,458.448"/>
	<path d="M198.384,454.833c0.372,2.243-1.785,4.549-4.867,5.164c-3.031,0.594-5.833-0.796-6.222-3.019
		c-0.375-2.303,1.819-4.608,4.846-5.202C195.228,451.204,197.992,452.55,198.384,454.833L198.384,454.833z M198.384,454.833"/>
</g>
</svg>
