<?xml version="1.0" encoding="utf-8"?>
<!-- Generator: Adobe Illustrator 16.0.0, SVG Export Plug-In . SVG Version: 6.00 Build 0)  -->
<!DOCTYPE svg PUBLIC "-//W3C//DTD SVG 1.1//EN" "http://www.w3.org/Graphics/SVG/1.1/DTD/svg11.dtd">
<svg version="1.1" id="Layer_1" xmlns="http://www.w3.org/2000/svg" xmlns:xlink="http://www.w3.org/1999/xlink" x="0px" y="0px"
	 width="227px" height="227px" viewBox="0 0 227 227" enable-background="new 0 0 227 227" xml:space="preserve">
<path fill="#6EA1D7" d="M225.82,46.833c-8.264,3.665-17.145,6.143-26.467,7.256c9.514-5.703,16.82-14.733,20.262-25.493
	c-8.904,5.281-18.766,9.116-29.262,11.182c-8.406-8.956-20.381-14.552-33.635-14.552c-25.448,0-46.08,20.631-46.08,46.079
	c0,3.612,0.407,7.128,1.193,10.501c-38.296-1.921-72.25-20.267-94.977-48.145c-3.966,6.806-6.239,14.721-6.239,23.166
	c0,15.986,8.135,30.09,20.5,38.354c-7.554-0.239-14.659-2.312-20.872-5.764c-0.003,0.192-0.004,0.385-0.004,0.579
	c0,22.326,15.883,40.951,36.963,45.184c-3.867,1.053-7.938,1.615-12.14,1.615c-2.969,0-5.855-0.289-8.669-0.826
	c5.864,18.307,22.881,31.629,43.045,32.002c-15.771,12.357-35.639,19.725-57.228,19.725c-3.719,0-7.388-0.219-10.992-0.643
	c20.393,13.074,44.613,20.701,70.636,20.701c84.757,0,131.104-70.215,131.104-131.106c0-1.998-0.045-3.985-0.133-5.961
	C211.83,64.19,219.643,56.074,225.82,46.833z"/>
</svg>
